Patient4_TMGait_0pt5_02_right_10_EMG.mot
version=1
nRows=16
nColumns=33
inDegrees=no
endheader
time	1LAddLong	2LGlutMax	3LGlutMed	4LIliopsoas	5LSemiMemb	6LBicFemLong	7LRecFem	8LVastMed	9LVastLat	10LGasMed	11LTibAnt	12lTibPost	13LPeroneusLong	14LSol	15LExtDigLong	16LFlexDigLong	17RAddLong	18RGlutMax	19RGlutMed	20RIliopsoas	21RSemiMemb	22RBicFemLong	23RRecFem	24RVastMed	25RVastLat	26RGasMed	27RTibAnt	28RTibPost	29RPeroneusLong	30RSol	31RExtDigLong	32RFlexDigLong
14.015	0.020142	0.005646	-0.004425	0.006714	0.042725	-0.007324	0.13626	0.017548	-0.080719	-0.045929	0.005493	-0.006714	0.019836	0.1207	-0.26916	0.013733	-0.056763	0.11581	-0.24429	0.086823	-0.048676	0.081787	-0.23712	0.079803	0.000458	-0.026855	0.46692	-0.006866	-0.3624	0.32227	-0.00473	-0.027161
14.016	0.034485	-0.018768	-0.019989	0.023193	0.003815	0.062866	0.069733	0.011292	-0.059357	0.039825	-0.005798	0.001373	-0.016785	0.027618	-0.23071	0.018616	-0.043945	0.10269	-0.18662	0.031891	0.032043	0.15305	-0.24475	0.026703	0.00351	-0.005798	0.1062	0.001526	-0.16815	0.11002	-0.005493	-0.018005
14.017	0.032654	-0.016327	-0.026855	0.007477	-0.004578	-0.012512	0.042877	-0.002441	-0.032349	-0.048218	0.003662	-0.001678	0.26901	-0.045471	-0.094299	0.011139	-0.002899	0.040588	-0.10239	-0.041962	0.052032	0.088501	-0.12161	0.032196	-0.027313	0.046234	-1.4191	-0.002594	0.41031	0.15549	-0.004425	-0.011444
14.018	0.022736	-0.01297	-0.007019	0.010376	0.040131	-0.014496	0.030823	-0.012665	-0.039673	-0.25497	-0.005646	0.009613	0.044861	-0.071716	0.090942	0.007782	0.022583	0.027618	-0.086517	-0.020752	-0.018616	0.039063	-0.11307	-0.033875	-0.07782	0.066528	-2.1114	0.00351	0.69107	0.48157	-0.006866	-0.006104
14.019	0.016174	0.035706	0.097656	-0.000763	0.056763	-0.054016	0.001068	-0.012207	-0.081177	-0.097809	-0.017395	0.005341	-0.16632	-0.11749	0.18509	0.003204	0.015564	0.097656	-0.12711	0.01297	-0.26001	-0.074005	-0.10834	-0.022583	-0.062714	0.054779	-1.0883	-0.000916	0.46509	0.29556	-0.003662	-0.005188
14.02	0.000153	0.036011	0.067139	0.011444	0.034637	0.13489	-0.03952	-0.004883	-0.036774	0.005035	-0.031891	0.007019	0.045929	-0.073242	0.075378	0.005951	0	0.11063	-0.17838	0.043488	-0.22446	-0.13977	-0.29862	-0.056152	-0.024414	0.028381	0.11398	-0.00351	-0.006561	-0.050812	-0.004272	-0.018616
14.021	-0.003052	0.04364	0.002899	0.009155	-0.002899	0.4187	-0.031281	-0.004272	-0.004883	0.078583	-0.039063	0.003204	0.29236	-0.05127	-0.018616	0.010681	-0.033264	0.00351	-0.24963	0.032654	-0.25223	0.007477	-0.49133	-0.10208	-0.026245	0.006256	0.18143	-0.002136	-0.21851	-0.087891	-0.002899	-0.016327
14.022	-0.012512	0.12283	-0.031433	0.011139	-0.019684	0.63461	0.10757	-0.011139	0.01358	0.14282	-0.012054	0.003204	-0.37201	0.006104	0	0.007324	-0.047607	0.022888	-0.13016	0.002136	-0.19699	0.014343	-0.50751	-0.084534	-0.031891	0.015411	0.27557	-0.001221	-0.12634	-0.22949	-0.00351	-0.022125
14.023	-0.006409	0.09903	-0.072479	0.02243	-0.064392	0.68207	0.2034	-0.006866	0.041351	0.15884	0.018463	-0.002747	-0.45837	0.044861	0.019684	0.011902	-0.016327	-0.015869	-0.06073	-0.01709	-0.093689	0.045166	-0.35721	-0.070953	-0.05127	0.008698	1.0577	-0.002899	-0.13458	-0.39993	-0.004883	-0.018921
14.024	0.008545	0.068817	-0.12253	0.007629	-0.089417	0.21668	0.14999	-0.012512	0.058594	0.13168	0.011902	-0.008698	-0.31052	0.054932	0.048218	0.015259	-0.021362	-0.028992	-0.1561	-0.044098	0.025177	0.014343	-0.3186	0	-0.047455	0.010376	0.85785	-0.007019	-0.021667	-0.44922	-0.003052	-0.014648
14.025	0.027924	-0.033112	-0.17502	-0.001068	-0.026093	-0.27237	0.062256	-0.013428	0.020752	0.028992	0.002441	-0.000458	-0.12543	0.069122	0.038147	0.020599	-0.012207	-0.026855	-0.15198	-0.043335	0.14328	-0.26382	-0.32547	0.0737	-0.037537	0.00824	-0.081787	-0.004272	-0.027618	-0.36789	-0.003815	-0.017242
14.026	0.032043	-0.12604	-0.18295	-0.007782	0.038147	-0.33615	0.000305	-0.00473	0.024719	-0.16464	0.002594	-0.002594	0.33554	0.2002	-0.021362	0.018768	0.00885	-0.056458	-0.10956	0.031586	0.04715	-0.38071	-0.383	0.016785	-0.080261	-0.001221	-0.91461	-0.00885	0.071411	-0.24399	-0.005341	-0.018463
14.027	0.031128	-0.094757	-0.050049	0.003052	0.11276	-0.36102	-0.030823	0.002747	0.16983	-0.24704	-0.016785	-0.000153	0.71243	0.29923	-0.066833	0.032196	0.045319	-0.10773	-0.12268	0.10986	-0.075684	-0.23361	-0.37674	-0.084991	-0.077209	-0.004578	-1.2607	-0.009918	0.09079	-0.12329	-0.000458	-0.018768
14.028	0.018616	-0.06485	-0.003357	-0.002289	0.10025	-0.32928	-0.04425	0.007019	0.092773	-0.22736	-0.003052	-0.00061	0.29358	0.17334	-0.18066	0.012665	0.042877	-0.037689	-0.083313	0.056763	-0.051117	-0.040741	-0.37613	-0.17441	-0.050507	-0.005188	-0.67871	-0.009918	0.103	0.049286	-0.00351	-0.015259
14.029	0.003052	0.019226	0.007782	-0.019379	0.00412	-0.20554	-0.050049	0.017853	-0.072021	-0.084686	0.056458	-0.001373	-0.089569	0.021057	-0.22644	0.031586	0.025635	0.02594	-0.10727	0.037689	-0.29068	0.12054	-0.45532	-0.079956	0.022278	-0.004883	0.29205	-0.002289	0.025635	0.12268	-0.001678	-0.019073
14.03	0.001068	-0.005798	-0.017395	0.007629	-0.049438	-0.168	-0.060577	0.013733	-0.19608	-0.037689	0.067749	0.000916	-0.51392	0.012512	-0.21851	0.028076	0.014648	-0.043182	-0.071106	-0.073853	-0.26611	-0.043335	-0.40939	-0.034485	0.00824	-0.00061	0.93689	-0.001068	0.009308	0.052795	-0.00061	-0.018005
